<?xml version="1.0" encoding="UTF-8" standalone="no"?>
<svg
   xmlns:dc="http://purl.org/dc/elements/1.1/"
   xmlns:cc="http://creativecommons.org/ns#"
   xmlns:rdf="http://www.w3.org/1999/02/22-rdf-syntax-ns#"
   xmlns:svg="http://www.w3.org/2000/svg"
   xmlns="http://www.w3.org/2000/svg"
   version="1.1"
   id="svg2"
   viewBox="0 0 200 515"
   height="515"
   width="200">
  <defs
     id="defs4" />
  <metadata
     id="metadata7">
    <rdf:RDF>
      <cc:Work
         rdf:about="">
        <dc:format>image/svg+xml</dc:format>
        <dc:type
           rdf:resource="http://purl.org/dc/dcmitype/StillImage" />
        <dc:title></dc:title>
      </cc:Work>
    </rdf:RDF>
  </metadata>
  <g
     id="face"
     style="fill:#aaaaaa;stroke:#888888;stroke-width:1px">
    <path
       id="dos_cuisse_d"
       d="M 132.76562 265.11914 L 132.76367 265.12109 L 123.35742 285.80469 L 100 285.12891 L 109.17773 334.21094 L 109.17969 334.21289 L 109.17969 334.21875 L 111.89648 356.52734 L 117.34961 343.01562 L 123.21289 339.87891 L 130.71484 344.24219 L 135.66016 353.50391 L 134.79297 334.21289 L 134.79297 334.21094 L 135.05469 311.55859 L 132.76562 265.11914 z " />
    <path
       d="m 123.21294,339.87905 7.50195,4.36328 4.94531,9.26172 1.09961,24.4375 -6.0625,42.72265 2.52734,5.94336 -0.63671,8.30664 2.2207,6.55469 6.78516,10.08203 -2.32618,5.97266 -13.63281,0 -1.67969,0 -0.38867,0 -5.94336,0 -1.55078,-3.10352 -1.16406,-2.74804 2.97851,-16.75782 0.11329,-7.22851 1.2539,-7.88477 -7.95312,-34.13476 0.5957,-29.13868 5.45313,-13.51172 5.86328,-3.13671 z"
       id="dos_tibia_d" />
    <path
       d="m 126.36326,95.729506 2.05274,-29.439453 -6.76563,-21.552734 -21.65039,-7.888672 -21.650391,7.888672 -6.765625,21.552734 2.052735,29.439453 12.314451,14.250004 0.466799,23.25586 13.582031,8.18555 13.58203,-8.18555 0.4668,-23.25586 z"
       id="dos_tete" />
    <path
       d="m 66.233565,136.56818 -8.15357,4.55408 -6.339008,36.34024 -4.504872,19.27848 -5.668578,17.29473 -7.214153,37.36009 -11.89579,1.36619 -2.277075,1.41988 -12.0792054,4.14017 3.0833904,4.3514 10.874921,-1.76272 -0.517364,10.60061 -0.994919,3.68129 -2.962269,14.07759 5.009208,0.69089 4.362081,-17.59092 0.998379,0.15931 -4.339579,21.996 5.024779,0.49869 4.280754,-21.70683 1.126429,0.17834 -4.002179,20.22117 5.007477,0.69261 3.98315,-20.12246 1.420569,0.22511 -4.154441,16.75631 5.007478,0.69261 4.341315,-17.5078 3.682073,-9.82659 -1.291679,-8.2249 13.906363,-40.03765 1.985488,-10.10034 2.718366,-13.08973 -1.236605,-15.90964 0.81905,-40.69618 z"
       id="dos_bras_d" />
    <path
       id="dos_haut"
       d="m 86.417969,131.51791 -20.183594,5.05078 -0.820313,40.69336 3.376954,29.24024 L 79.187711,182.98828 100,166.99651 l 20.81229,15.99307 10.39669,23.51466 3.37696,-29.24023 -0.82032,-40.69336 -20.18359,-5.05274 -27.164061,-5e-5 z" />
    <path
       id="dos_cuisse_g"
       d="M 67.234375 265.11914 L 64.945312 311.55859 L 65.207031 334.21094 L 65.207031 334.21289 L 64.339844 353.50391 L 69.285156 344.24219 L 76.787109 339.87891 L 82.650391 343.01562 L 88.103516 356.52734 L 90.820312 334.21875 L 90.820312 334.21289 L 90.822266 334.21094 L 100 285.12891 L 76.642578 285.80469 L 67.236328 265.12109 L 67.236328 265.11914 L 67.234375 265.11914 z " />
    <path
       id="dos_bras_g"
       d="m 133.76641,136.56967 8.15357,4.55408 6.33901,36.34024 4.50487,19.27848 5.66858,17.29473 7.21416,37.36009 11.89579,1.36619 2.27707,1.41988 12.07921,4.14017 -3.08339,4.3514 -10.87493,-1.76272 0.51737,10.60061 0.99492,3.68129 2.96227,14.07759 -5.00921,0.69089 -4.36208,-17.59092 -0.99838,0.15931 4.33958,21.996 -5.02478,0.49869 -4.28076,-21.70683 -1.12642,0.17834 4.00217,20.22117 -5.00747,0.69261 -3.98315,-20.12246 -1.42057,0.22511 4.15444,16.75631 -5.00748,0.69261 -4.34131,-17.5078 -3.68208,-9.82659 1.29168,-8.2249 -13.90636,-40.03765 -1.98549,-10.10034 -2.71836,-13.08973 1.2366,-15.90964 -0.81905,-40.69618 z" />
    <path
       id="dos_bas"
       d="m 100,253.21419 6e-5,31.91389 23.35658,0.677 9.40703,-20.68399 -2.70508,-34.89257 1.15039,-23.72461 L 120.81229,182.98914 100,166.99618 l 0,-0.001 0,-0.001 -20.812289,15.99229 -10.396695,23.51544 1.15039,23.72461 -2.705078,34.89258 9.407028,20.68594 L 100,285.12891 Z" />
    <path
       id="dos_tibia_g"
       d="m 76.787109,339.87891 -7.501953,4.36328 -4.945312,9.26172 -1.09961,24.4375 6.0625,42.72265 -2.527343,5.94336 0.636718,8.30664 -2.220703,6.55469 -6.785156,10.08203 2.326172,5.97266 13.632812,0 1.679688,0 0.388672,0 5.943359,0 1.550781,-3.10352 1.164063,-2.74804 L 82.113281,434.91406 82,427.68555 l -1.253906,-7.88477 7.953125,-34.13476 -0.595703,-29.13868 -5.453125,-13.51172 -5.863282,-3.13671 z" />
  </g>
</svg>
