<?xml version="1.0" encoding="UTF-8" standalone="no"?>
<svg
   xmlns:dc="http://purl.org/dc/elements/1.1/"
   xmlns:cc="http://creativecommons.org/ns#"
   xmlns:rdf="http://www.w3.org/1999/02/22-rdf-syntax-ns#"
   xmlns:svg="http://www.w3.org/2000/svg"
   xmlns="http://www.w3.org/2000/svg"
   xmlns:sodipodi="http://sodipodi.sourceforge.net/DTD/sodipodi-0.dtd"
   xmlns:inkscape="http://www.inkscape.org/namespaces/inkscape"
   width="200"
   height="515"
   viewBox="0 0 200 515"
   id="svg2"
   version="1.1"
   sodipodi:docname="dos-enfant-cplx.svg"
   inkscape:version="0.92.1 unknown">
  <sodipodi:namedview
     pagecolor="#ffffff"
     bordercolor="#666666"
     borderopacity="1"
     objecttolerance="10"
     gridtolerance="10"
     guidetolerance="10"
     inkscape:pageopacity="0"
     inkscape:pageshadow="2"
     inkscape:window-width="1920"
     inkscape:window-height="1176"
     id="namedview20"
     showgrid="false"
     inkscape:zoom="7.3320388"
     inkscape:cx="78.76054"
     inkscape:cy="261.82243"
     inkscape:window-x="1920"
     inkscape:window-y="24"
     inkscape:window-maximized="1"
     inkscape:current-layer="svg2" />
  <defs
     id="defs4" />
  <metadata
     id="metadata7">
    <rdf:RDF>
      <cc:Work
         rdf:about="">
        <dc:format>image/svg+xml</dc:format>
        <dc:type
           rdf:resource="http://purl.org/dc/dcmitype/StillImage" />
        <dc:title />
      </cc:Work>
    </rdf:RDF>
  </metadata>
  <g
     style="fill:#aaaaaa;stroke:#888888;stroke-width:1px"
     id="face">
    <path
       d="m 132.76562,265.11914 -0.002,0.002 -9.40625,20.6836 L 100,285.12891 l 9.17773,49.08203 0.002,0.002 v 0.006 l 2.71679,22.30859 5.45313,-13.51172 5.86328,-3.13671 7.50195,4.36328 4.94532,9.26172 -0.86719,-19.29102 v -0.002 l 0.26172,-22.65235 z"
       id="dos_cuisse_d"
       inkscape:connector-curvature="0" />
    <path
       id="dos_pied_d"
       d="m 132.58794,434.9142 2.2207,6.55469 6.78516,10.08203 -2.32618,5.97266 h -13.63281 -1.67969 -0.38867 -5.94336 l -1.55078,-3.10352 -1.16406,-2.74804 2.97851,-16.75782 z"
       inkscape:connector-curvature="0" />
    <path
       id="dos_tibia_d"
       d="m 117.88676,434.9142 0.11329,-7.22851 1.2539,-7.88477 -7.95312,-34.13476 0.5957,-29.13868 5.45313,-13.51172 5.86328,-3.13671 7.50195,4.36328 4.94531,9.26172 1.09961,24.4375 -6.0625,42.72265 2.52734,5.94336 -0.63671,8.30664 z"
       inkscape:connector-curvature="0" />
    <path
       id="dos_cou"
       d="m 85.95115,109.97951 0.466799,23.25586 13.582031,8.18555 13.58203,-8.18555 0.4668,-23.25586 z"
       inkscape:connector-curvature="0" />
    <path
       id="dos_tete"
       d="M 114.04881,109.97951 126.36326,95.729506 128.416,66.290053 121.65037,44.737319 99.99998,36.848647 78.349589,44.737319 71.583964,66.290053 73.636699,95.729506 85.95115,109.97951 Z"
       inkscape:connector-curvature="0" />
    <path
       id="dos_main_g"
       d="m 34.353384,251.3958 -11.89579,1.36619 -2.277075,1.41988 -12.0792054,4.14017 3.0833904,4.3514 10.874921,-1.76272 -0.517364,10.60061 -0.994919,3.68129 -2.962269,14.07759 5.009208,0.69089 4.362081,-17.59092 0.998379,0.15931 -4.339579,21.996 5.024779,0.49869 4.280754,-21.70683 1.126429,0.17834 -4.002179,20.22117 5.007477,0.69261 3.98315,-20.12246 1.420569,0.22511 -4.154441,16.75631 5.007478,0.69261 4.341315,-17.5078 3.682073,-9.82659 -1.291679,-8.2249 z"
       inkscape:connector-curvature="0" />
    <path
       d="m 63.932738,206.26376 2.718366,-13.08973 -1.236605,-15.90964 0.81905,-40.69618 1.6e-5,-3e-5 -8.15357,4.55408 -6.339008,36.34024 -4.504872,19.27848 z"
       id="dos_bras_d"
       inkscape:connector-curvature="0"
       sodipodi:nodetypes="ccccccccc" />
    <path
       d="m 47.236115,196.74098 -5.668578,17.29473 -7.214153,37.36009 13.687503,5.00595 13.906363,-40.03765 1.985488,-10.10034 z"
       id="dos_avbras_d"
       inkscape:connector-curvature="0"
       sodipodi:nodetypes="ccccccc" />
    <path
       d="m 86.417969,131.51791 -20.183594,5.05078 -0.820313,40.69336 3.376954,29.24024 L 79.187711,182.98828 100,166.99651 l 20.81229,15.99307 10.39669,23.51466 3.37696,-29.24023 -0.82032,-40.69336 -20.18359,-5.05274 -27.164061,-5e-5 z"
       id="dos_haut"
       inkscape:connector-curvature="0" />
    <path
       d="m 67.234375,265.11914 -2.289063,46.43945 0.261719,22.65235 v 0.002 l -0.867187,19.29102 4.945312,-9.26172 7.501953,-4.36328 5.863282,3.13671 5.453125,13.51172 2.716796,-22.30859 v -0.006 l 0.002,-0.002 L 100,285.12891 l -23.357422,0.67578 -9.40625,-20.6836 v -0.002 z"
       id="dos_cuisse_g"
       inkscape:connector-curvature="0" />
    <path
       id="dos_main_d"
       d="m 165.6466,251.39729 11.89579,1.36619 2.27707,1.41988 12.07921,4.14017 -3.08339,4.3514 -10.87493,-1.76272 0.51737,10.60061 0.99492,3.68129 2.96227,14.07759 -5.00921,0.69089 -4.36208,-17.59092 -0.99838,0.15931 4.33958,21.996 -5.02478,0.49869 -4.28076,-21.70683 -1.12642,0.17834 4.00217,20.22117 -5.00747,0.69261 -3.98315,-20.12246 -1.42057,0.22511 4.15444,16.75631 -5.00748,0.69261 -4.34131,-17.5078 -3.68208,-9.82659 1.29168,-8.2249 z"
       inkscape:connector-curvature="0" />
    <path
       d="m 136.06724,206.26525 -2.71836,-13.08973 1.2366,-15.90964 -0.81905,-40.69618 -2e-5,-3e-5 8.15357,4.55408 6.33901,36.34024 4.50487,19.27848 z"
       id="dos_bras_g"
       inkscape:connector-curvature="0"
       sodipodi:nodetypes="ccccccccc" />
    <path
       d="m 152.76386,196.74247 5.66858,17.29473 7.21416,37.36009 -13.68751,5.00595 -13.90636,-40.03765 -1.98549,-10.10034 z"
       id="dos_avbras_g"
       inkscape:connector-curvature="0"
       sodipodi:nodetypes="ccccccc" />
    <path
       d="m 131.41113,247.6748 -1.35254,-17.44628 1.15039,-23.72461 L 120.81229,182.98914 100,166.99618 v -0.001 -0.001 l -20.812289,15.99229 -10.396695,23.51544 1.15039,23.72461 -1.352539,17.44629 z"
       id="dos_bas"
       inkscape:connector-curvature="0"
       sodipodi:nodetypes="cccccccccccc" />
    <path
       d="m 100,253.21419 6e-5,31.91389 23.35658,0.677 9.40703,-20.68399 -1.35254,-17.44629 -31.411132,-9.9e-4"
       id="dos_fesse_d"
       inkscape:connector-curvature="0" />
    <path
       d="m 99.999998,247.67381 -31.411131,-0.001 -1.352539,17.44629 9.407028,20.68594 L 100,285.12891 v -31.91472"
       id="dos_fesse_g"
       inkscape:connector-curvature="0" />
    <path
       id="dos_pied_g"
       d="m 67.412109,434.91406 -2.220703,6.55469 -6.785156,10.08203 2.326172,5.97266 h 13.632812 1.679688 0.388672 5.943359 l 1.550781,-3.10352 1.164063,-2.74804 -2.978516,-16.75782 z"
       inkscape:connector-curvature="0" />
    <path
       id="dos_tibia_g"
       d="M 82.113281,434.91406 82,427.68555 l -1.253906,-7.88477 7.953125,-34.13476 -0.595703,-29.13868 -5.453125,-13.51172 -5.863282,-3.13671 -7.501953,4.36328 -4.945312,9.26172 -1.09961,24.4375 6.0625,42.72265 -2.527343,5.94336 0.636718,8.30664 z"
       inkscape:connector-curvature="0" />
  </g>
</svg>
