<?xml version="1.0" encoding="UTF-8" standalone="no"?>
<svg
   xmlns:dc="http://purl.org/dc/elements/1.1/"
   xmlns:cc="http://creativecommons.org/ns#"
   xmlns:rdf="http://www.w3.org/1999/02/22-rdf-syntax-ns#"
   xmlns:svg="http://www.w3.org/2000/svg"
   xmlns="http://www.w3.org/2000/svg"
   width="200"
   height="515"
   viewBox="0 0 200 515"
   id="svg2"
   version="1.1">
  <defs
     id="defs4" />
  <metadata
     id="metadata7">
    <rdf:RDF>
      <cc:Work
         rdf:about="">
        <dc:format>image/svg+xml</dc:format>
        <dc:type
           rdf:resource="http://purl.org/dc/dcmitype/StillImage" />
        <dc:title></dc:title>
      </cc:Work>
    </rdf:RDF>
  </metadata>
  <g
     style="fill:#aaaaaa;stroke:#888888;stroke-width:1px"
     id="dos">
    <path
       id="dos_cou"
       d="m 86.418327,74.168208 v 22.714839 l 13.582033,8.185563 13.58203,-8.185563 V 74.168208 Z" />
    <path
       id="dos_tete"
       d="M 113.58239,74.168208 126.36364,59.377192 128.41638,29.937739 121.65075,8.3850042 100.00036,0.49633217 78.349967,8.3850042 71.584342,29.937739 l 2.052735,29.439453 12.78125,14.791016 z" />
    <path
       id="dos_avbras_g"
       d="m 142.62444,193.63839 -0.52197,5.66407 17.95689,46.78848 13.68751,-5.00594 -7.21416,-50.28314 -4.89705,-5.1432 z" />
    <path
       id="dos_main_d"
       d="m 160.05936,246.09094 -1.29167,8.2249 3.68207,9.82659 4.34131,17.5078 5.00748,-0.69263 -4.15445,-16.7563 1.42059,-0.2251 3.98313,20.12244 5.00748,-0.69261 -4.00217,-20.22115 1.12642,-0.17835 4.28075,21.70681 5.02478,-0.49868 -4.33958,-21.99599 0.99838,-0.15931 4.36207,17.59091 5.00922,-0.69089 -2.96227,-14.07758 -0.99492,-3.68129 -0.51736,-10.6006 10.87491,1.76273 3.08339,-4.35141 -12.0792,-4.14016 -2.27706,-1.41988 -11.89579,-1.36619 z" />
    <path
       id="dos_bras_d"
       d="m 161.63566,185.65866 -6.62656,-43.00289 1.27594,-12.23743 -4.14309,-24.10281 -14.51866,-6.09713 v 3e-5 l 3.90663,40.69618 -5.48148,22.08333 6.576,30.64045 z" />
    <path
       id="dos_main_g"
       d="m 26.252071,241.08606 -11.89579,1.36619 -2.277075,1.41988 L 0,248.0123 l 3.08339,4.3514 10.874922,-1.76272 -0.517364,10.60061 -0.994919,3.68129 -2.962269,14.07759 5.009208,0.69089 4.362081,-17.59092 0.998379,0.15931 -4.339579,21.996 5.024779,0.49869 4.280754,-21.70683 1.126429,0.17834 -4.002179,20.22117 5.007477,0.69261 3.98315,-20.12246 1.420569,0.22511 -4.154441,16.75631 5.007478,0.69261 4.341315,-17.5078 3.682073,-9.82659 -1.291679,-8.2249 z" />
    <path
       id="dos_avbras_d"
       d="m 39.939574,246.09201 17.956872,-46.78849 -0.52197,-5.66407 -19.011199,-7.97973 -4.897053,5.1432 -7.214153,50.28314 z" />
    <path
       id="dos_bras_g"
       d="m 57.374476,193.63945 6.575993,-30.64194 -5.479995,-22.08184 3.905152,-40.69618 1.6e-5,-3e-5 -14.518654,6.09713 -4.143084,24.10281 1.27594,12.23743 -6.626567,43.00289 z" />
    <path
       id="dos_haut"
       d="m 99.999616,92.315676 -37.623989,7.903814 -3.904825,40.69512 10.320758,41.58524 7.336336,-20.88546 23.872164,-20.88537 23.87241,20.88537 7.3361,20.88546 10.32135,-41.58524 -3.90557,-40.69512 z" />
    <path
       id="dos_bas"
       d="m 133.0484,223.66602 -2.98983,-17.44984 1.14954,-23.71638 -7.33634,-20.88541 -23.872154,-20.88551 -23.872398,20.88551 -7.336092,20.88541 1.149539,23.72383 -2.989094,17.44611 33.048414,-10.91288 z" />
    <path
       id="dos_fesse_d"
       d="m 99.999843,226.45367 2.27e-4,34.67105 27.24832,4.36189 8.04828,-12.18534 0.74157,-12.18514 -2.98984,-17.44983 -33.048414,-10.90902" />
    <path
       id="dos_fesse_g"
       d="m 99.999986,212.75728 -33.048415,10.91274 -2.989094,17.44611 0.741185,12.18514 8.047849,12.18534 27.248559,-4.36189 -2.27e-4,-34.67105" />
    <path
       id="dos_cuisse_g"
       d="m 63.961205,241.11565 -6.925467,54.48729 3.807001,70.20858 4.35128,-17.41635 11.421005,-9.79679 11.9638,27.21314 11.421005,-104.68708 -27.248318,4.36189 -8.048237,-12.18534 z" />
    <path
       id="dos_pied_g"
       d="m 61.929688,483.91406 -2.792969,8.24414 -8.535157,12.68164 2.927735,7.51172 h 17.146484 2.113281 0.488282 7.476562 l 1.951172,-3.90429 1.462891,-3.45704 -3.746094,-21.07617 z" />
    <path
       id="dos_tibia_g"
       d="m 80.421875,483.91406 -0.142578,-9.0957 -1.578125,-9.91602 9.876953,-49.56445 -2.716797,-27.21289 2.716797,-22.31445 -11.962891,-27.21289 -11.421875,9.79687 -4.351562,17.41602 -5.4375,32.92773 8.902344,67.25 -3.177735,7.47656 0.800782,10.44922 z" />
    <path
       id="dos_cuisse_d"
       d="m 136.0387,241.11565 -0.74207,12.18534 -8.04824,12.18534 -27.24832,-4.36189 11.42101,104.68708 11.9638,-27.21314 11.421,9.79679 4.35128,17.41635 3.80701,-70.20858 z" />
    <path
       id="dos_pied_d"
       d="m 119.57812,483.91406 -3.74609,21.07617 1.46289,3.45704 1.95117,3.90429 h 7.47657 0.48828 2.11328 17.14648 l 2.92774,-7.51172 -8.53516,-12.68164 -2.79297,-8.24414 z" />
    <path
       id="dos_tibia_d"
       d="m 138.07031,483.91406 0.80078,-10.44922 -3.17773,-7.47656 8.90234,-67.25 -5.43945,-32.92773 -4.34961,-17.41602 -11.42187,-9.79687 -11.96289,27.21289 2.71679,22.31445 -2.71679,27.21289 9.87695,49.56445 -1.57813,9.91602 -0.14258,9.0957 z" />
  </g>
</svg>
