<?xml version="1.0" encoding="UTF-8" standalone="no"?>
<svg
   xmlns:dc="http://purl.org/dc/elements/1.1/"
   xmlns:cc="http://creativecommons.org/ns#"
   xmlns:rdf="http://www.w3.org/1999/02/22-rdf-syntax-ns#"
   xmlns:svg="http://www.w3.org/2000/svg"
   xmlns="http://www.w3.org/2000/svg"
   version="1.1"
   id="svg2"
   viewBox="0 0 200 515"
   height="515"
   width="200">
  <defs
     id="defs4" />
  <metadata
     id="metadata7">
    <rdf:RDF>
      <cc:Work
         rdf:about="">
        <dc:format>image/svg+xml</dc:format>
        <dc:type
           rdf:resource="http://purl.org/dc/dcmitype/StillImage" />
        <dc:title></dc:title>
      </cc:Work>
    </rdf:RDF>
  </metadata>
  <g
     id="dos"
     style="fill:#aaaaaa;stroke:#888888;stroke-width:1px">
    <path
       d="M 100.00036,0.49633217 78.349967,8.3850042 71.584342,29.937739 l 2.052735,29.439453 12.78125,14.791016 0,22.714839 13.582033,8.185563 13.58203,-8.185563 0,-22.714839 12.78125,-14.791016 2.05274,-29.439453 -6.76563,-21.5527348 -21.65039,-7.88867203 z"
       id="dos_tete" />
    <path
       d="m 137.62437,100.21952 3.90663,40.69618 -5.48148,22.08333 6.576,30.64045 -0.52197,5.66407 17.95689,46.78848 -1.29167,8.2249 3.68207,9.82659 4.34131,17.5078 5.00748,-0.69263 -4.15445,-16.7563 1.42059,-0.2251 3.98313,20.12244 5.00748,-0.69261 -4.00217,-20.22115 1.12642,-0.17835 4.28075,21.70681 5.02478,-0.49868 -4.33958,-21.99599 0.99838,-0.15931 4.36207,17.59091 5.00922,-0.69089 -2.96227,-14.07758 -0.99492,-3.68129 -0.51736,-10.6006 10.87491,1.76273 3.08339,-4.35141 -12.0792,-4.14016 -2.27706,-1.41988 -11.89579,-1.36619 -7.21416,-50.28314 -4.89705,-5.1432 -6.62656,-43.00289 1.27594,-12.23743 -4.14309,-24.10281 -14.51866,-6.09713 z"
       id="dos_bras_d" />
    <path
       d="m 62.375642,100.21946 -14.518654,6.09713 -4.143084,24.10281 1.27594,12.23743 -6.626567,43.00289 -4.897053,5.1432 -7.214153,50.28314 -11.89579,1.36619 -2.277075,1.41988 L 0,248.0123 l 3.08339,4.3514 10.874922,-1.76272 -0.517364,10.60061 -0.994919,3.68129 -2.962269,14.07759 5.009208,0.69089 4.362081,-17.59092 0.998379,0.15931 -4.339579,21.996 5.024779,0.49869 4.280754,-21.70683 1.126429,0.17834 -4.002179,20.22117 5.007477,0.69261 3.98315,-20.12246 1.420569,0.22511 -4.154441,16.75631 5.007478,0.69261 4.341315,-17.5078 3.682073,-9.82659 -1.291679,-8.2249 17.956872,-46.78849 -0.52197,-5.66407 6.575993,-30.64194 -5.479995,-22.08184 3.905152,-40.69618 z"
       id="dos_bras_g" />
    <path
       d="m 99.999616,92.315676 -37.623989,7.903814 -3.904825,40.69512 10.320758,41.58524 7.336336,-20.88546 23.872164,-20.88537 23.87241,20.88537 7.3361,20.88546 10.32135,-41.58524 -3.90557,-40.69512 z"
       id="dos_haut" />
    <path
       d="m 100.00007,261.12444 27.24832,4.36189 8.04828,-12.18534 0.74157,-12.18514 -5.97967,-34.89967 1.14954,-23.71638 -7.33634,-20.88541 -23.872154,-20.88551 -23.872398,20.88551 -7.336092,20.88541 1.149539,23.72383 -5.978188,34.89222 0.741185,12.18514 8.047849,12.18534 27.248559,-4.36189 -2.27e-4,-34.67105 z"
       id="dos_bas" />
    <path
       d="m 63.961205,241.11565 -6.925467,54.48729 3.807001,70.20858 4.35128,-17.41635 11.421005,-9.79679 11.9638,27.21314 11.421005,-104.68708 -27.248318,4.36189 -8.048237,-12.18534 -0.742069,-12.18534 z"
       id="dos_cuisse_g" />
    <path
       id="dos_tibia_g"
       d="M 76.615234 338.59766 L 65.193359 348.39453 L 60.841797 365.81055 L 55.404297 398.73828 L 64.306641 465.98828 L 61.128906 473.46484 L 61.929688 483.91406 L 59.136719 492.1582 L 50.601562 504.83984 L 53.529297 512.35156 L 70.675781 512.35156 L 72.789062 512.35156 L 73.277344 512.35156 L 80.753906 512.35156 L 82.705078 508.44727 L 84.167969 504.99023 L 80.421875 483.91406 L 80.279297 474.81836 L 78.701172 464.90234 L 88.578125 415.33789 L 85.861328 388.125 L 88.578125 365.81055 L 76.615234 338.59766 z " />
    <path
       d="m 136.0387,241.11565 -0.74207,12.18534 -8.04824,12.18534 -27.24832,-4.36189 11.42101,104.68708 11.9638,-27.21314 11.421,9.79679 4.35128,17.41635 3.80701,-70.20858 -6.92547,-54.48729 z"
       id="dos_cuisse_d" />
    <path
       id="dos_tibia_d"
       d="M 123.38477 338.59766 L 111.42188 365.81055 L 114.13867 388.125 L 111.42188 415.33789 L 121.29883 464.90234 L 119.7207 474.81836 L 119.57812 483.91406 L 115.83203 504.99023 L 117.29492 508.44727 L 119.24609 512.35156 L 126.72266 512.35156 L 127.21094 512.35156 L 129.32422 512.35156 L 146.4707 512.35156 L 149.39844 504.83984 L 140.86328 492.1582 L 138.07031 483.91406 L 138.87109 473.46484 L 135.69336 465.98828 L 144.5957 398.73828 L 139.15625 365.81055 L 134.80664 348.39453 L 123.38477 338.59766 z " />
  </g>
</svg>
