<?xml version="1.0" encoding="UTF-8" standalone="no"?>
<svg
   xmlns:dc="http://purl.org/dc/elements/1.1/"
   xmlns:cc="http://creativecommons.org/ns#"
   xmlns:rdf="http://www.w3.org/1999/02/22-rdf-syntax-ns#"
   xmlns:svg="http://www.w3.org/2000/svg"
   xmlns="http://www.w3.org/2000/svg"
   xmlns:sodipodi="http://sodipodi.sourceforge.net/DTD/sodipodi-0.dtd"
   xmlns:inkscape="http://www.inkscape.org/namespaces/inkscape"
   width="200"
   height="515"
   viewBox="0 0 200 515"
   id="svg2"
   version="1.1"
   sodipodi:docname="face-enfant-cplx.svg"
   inkscape:version="0.92.1 unknown">
  <sodipodi:namedview
     pagecolor="#ffffff"
     bordercolor="#666666"
     borderopacity="1"
     objecttolerance="10"
     gridtolerance="10"
     guidetolerance="10"
     inkscape:pageopacity="0"
     inkscape:pageshadow="2"
     inkscape:window-width="1920"
     inkscape:window-height="1176"
     id="namedview21"
     showgrid="false"
     inkscape:zoom="1.8330097"
     inkscape:cx="77.322143"
     inkscape:cy="353.07063"
     inkscape:window-x="1920"
     inkscape:window-y="24"
     inkscape:window-maximized="1"
     inkscape:current-layer="svg2" />
  <defs
     id="defs4" />
  <metadata
     id="metadata7">
    <rdf:RDF>
      <cc:Work
         rdf:about="">
        <dc:format>image/svg+xml</dc:format>
        <dc:type
           rdf:resource="http://purl.org/dc/dcmitype/StillImage" />
        <dc:title />
      </cc:Work>
    </rdf:RDF>
  </metadata>
  <g
     style="fill:#aaaaaa;stroke:#888888;stroke-width:1px"
     id="face">
    <path
       id="face_tete"
       d="m 99.99998,36.848647 -21.650391,7.888672 -6.765625,21.552734 2.052735,29.439453 12.314453,14.250004 14.048828,3.66015 14.04883,-3.66015 12.31445,-14.250004 2.05274,-29.439453 -6.76563,-21.552734 z"
       inkscape:connector-curvature="0" />
    <path
       id="face_cou"
       d="m 85.951149,109.97951 0.4668,23.25586 13.582031,8.18555 13.58203,-8.18555 0.4668,-23.25586 -14.04883,3.7832 z"
       inkscape:connector-curvature="0" />
    <path
       id="face_main_d"
       d="m 34.353384,251.3958 -11.89579,1.36619 -2.277075,1.41988 -12.0792054,4.14017 3.0833904,4.3514 10.874921,-1.76272 -0.517364,10.60061 -0.994919,3.68129 -2.962269,14.07759 5.009208,0.69089 4.362081,-17.59092 0.998379,0.15931 -4.339579,21.996 5.024779,0.49869 4.280754,-21.70683 1.126429,0.17834 -4.002179,20.22117 5.007477,0.69261 3.98315,-20.12246 1.420569,0.22511 -4.154441,16.75631 5.007478,0.69261 4.341315,-17.5078 3.682073,-9.82659 -1.291679,-8.2249 z"
       inkscape:connector-curvature="0" />
    <path
       d="m 63.932738,206.26376 2.718366,-13.08973 -1.236605,-15.90964 0.81905,-40.69618 1.6e-5,-3e-5 -8.15357,4.55408 -6.339008,36.34024 -4.504872,19.27848 z"
       id="face_bras_d"
       inkscape:connector-curvature="0"
       sodipodi:nodetypes="ccccccccc" />
    <path
       d="m 47.236115,196.74098 -5.668578,17.29473 -7.214153,37.36009 13.687503,5.00595 13.906363,-40.03765 1.985488,-10.10034 z"
       id="face_avbras_d"
       inkscape:connector-curvature="0"
       sodipodi:nodetypes="ccccccc" />
    <path
       d="m 86.417969,131.51791 -20.183594,5.05078 -0.820313,40.69336 3.376954,29.24024 L 100,193.03549 l 31.20898,13.46875 3.37696,-29.24023 -0.82032,-40.69336 -20.18359,-5.05274 v 1.71875 L 100,141.42221 v -0.002 l -13.582031,-8.18555 v -1.7168 z"
       id="face_thorax"
       inkscape:connector-curvature="0" />
    <path
       d="m 100,193.03354 -31.208984,13.46875 1.15039,23.72461 -2.705078,34.89257 20.585938,13.07422 -1.28125,-24.22265 L 100,249.20736 v 0.002 l 13.45898,4.76172 -1.28125,24.22461 20.58594,-13.07422 -2.70508,-34.89258 1.15039,-23.72461 L 100,193.03549 v -0.002 z"
       id="face_abdomen"
       inkscape:connector-curvature="0" />
    <path
       d="m 100.00006,249.20866 -13.459945,4.76158 1.291341,24.4017 12.168604,6.75614 12.16853,-6.75614 1.29135,-24.4017 z"
       id="face_genital"
       inkscape:connector-curvature="0" />
    <path
       d="m 100.00006,285.12808 -32.764974,-20.00897 -2.289051,46.43965 0.260932,22.65279 6.934212,18.64067 6.934213,3.94583 4.812525,-3.94583 6.934213,-18.64067 z"
       id="face_cuisse_d"
       inkscape:connector-curvature="0" />
    <path
       id="face_pied_d"
       d="m 67.412436,434.91436 -2.220385,6.55402 -6.785373,10.08334 2.32597,6.41117 13.632852,-0.38973 1.680039,-1.22043 0.38818,2.03405 5.943799,0.30744 1.551164,-4.27463 1.162985,-2.74831 -2.978111,-16.75692 z"
       inkscape:connector-curvature="0" />
    <path
       id="face_tibia_d"
       d="m 82.113556,434.91436 -0.113348,-7.22944 -1.254595,-7.8847 7.953529,-34.13394 -0.595102,-29.13975 2.716797,-22.31445 -6.933594,18.64062 -4.811898,3.94531 -6.933594,-3.94531 -6.935547,-18.64062 -1.965636,43.72908 6.061524,42.72237 -2.526271,5.9438 0.636615,8.30703 z"
       inkscape:connector-curvature="0" />
    <path
       id="face_main_g"
       d="m 165.6466,251.39729 11.89579,1.36619 2.27707,1.41988 12.07921,4.14017 -3.08339,4.3514 -10.87493,-1.76272 0.51737,10.60061 0.99492,3.68129 2.96227,14.07759 -5.00921,0.69089 -4.36208,-17.59092 -0.99838,0.15931 4.33958,21.996 -5.02478,0.49869 -4.28076,-21.70683 -1.12642,0.17834 4.00217,20.22117 -5.00747,0.69261 -3.98315,-20.12246 -1.42057,0.22511 4.15444,16.75631 -5.00748,0.69261 -4.34131,-17.5078 -3.68208,-9.82659 1.29168,-8.2249 z"
       inkscape:connector-curvature="0" />
    <path
       d="m 136.06724,206.26525 -2.71836,-13.08973 1.2366,-15.90964 -0.81905,-40.69618 -2e-5,-3e-5 8.15357,4.55408 6.33901,36.34024 4.50487,19.27848 z"
       id="face_bras_g"
       inkscape:connector-curvature="0"
       sodipodi:nodetypes="ccccccccc" />
    <path
       d="m 152.76386,196.74247 5.66858,17.29473 7.21416,37.36009 -13.68751,5.00595 -13.90636,-40.03765 -1.98549,-10.10034 z"
       id="face_avbras_g"
       inkscape:connector-curvature="0"
       sodipodi:nodetypes="ccccccc" />
    <path
       id="face_cuisse_g"
       d="m 99.99992,285.12957 32.76497,-20.00897 2.28905,46.43965 -0.26093,22.65279 -6.93421,18.64067 -6.93421,3.94583 -4.81253,-3.94583 -6.93421,-18.64067 z"
       inkscape:connector-curvature="0" />
    <path
       id="face_pied_g"
       d="m 132.58754,434.91585 2.22039,6.55402 6.78537,10.08334 -2.32597,6.41117 -13.63285,-0.38973 -1.68004,-1.22043 -0.38818,2.03405 -5.9438,0.30744 -1.55116,-4.27463 -1.16299,-2.74831 2.97811,-16.75692 z"
       inkscape:connector-curvature="0" />
    <path
       id="face_tibia_g"
       d="m 117.88642,434.91585 0.11335,-7.22944 1.2546,-7.8847 -7.95353,-34.13394 0.5951,-29.13975 -2.7168,-22.31445 6.9336,18.64062 4.81189,3.94531 6.9336,-3.94531 6.93555,-18.64062 1.96563,43.72908 -6.06152,42.72237 2.52627,5.9438 -0.63662,8.30703 z"
       inkscape:connector-curvature="0" />
  </g>
</svg>
