<?xml version="1.0" encoding="UTF-8" standalone="no"?>
<svg
   xmlns:dc="http://purl.org/dc/elements/1.1/"
   xmlns:cc="http://creativecommons.org/ns#"
   xmlns:rdf="http://www.w3.org/1999/02/22-rdf-syntax-ns#"
   xmlns:svg="http://www.w3.org/2000/svg"
   xmlns="http://www.w3.org/2000/svg"
   version="1.1"
   id="svg2"
   viewBox="0 0 200 515"
   height="515"
   width="200">
  <defs
     id="defs4" />
  <metadata
     id="metadata7">
    <rdf:RDF>
      <cc:Work
         rdf:about="">
        <dc:format>image/svg+xml</dc:format>
        <dc:type
           rdf:resource="http://purl.org/dc/dcmitype/StillImage" />
        <dc:title></dc:title>
      </cc:Work>
    </rdf:RDF>
  </metadata>
  <g
     id="face"
     style="fill:#aaaaaa;stroke:#888888;stroke-width:1px">
    <path
       id="face_tete"
       d="m 100,0.5 -21.650391,7.8886719 -6.765625,21.5527341 2.052735,29.439453 12.314453,14.25 L 100,77.291016 l 14.04883,-3.660157 12.31445,-14.25 2.05274,-29.439453 -6.76563,-21.5527341 z" />
    <path
       id="face_cou"
       d="m 85.951169,73.630859 0.4668,23.25586 L 100,105.07227 113.58203,96.886719 114.04883,73.630859 100,77.414064 Z" />
    <path
       id="face_main_g"
       d="m 173.74772,241.08465 11.89579,1.36619 2.27707,1.41988 12.07921,4.14017 -3.08339,4.3514 -10.87492,-1.76272 0.51736,10.60061 0.99492,3.68129 2.96227,14.07759 -5.00921,0.69089 -4.36208,-17.59092 -0.99838,0.15931 4.33958,21.996 -5.02478,0.49869 -4.28075,-21.70683 -1.12643,0.17834 4.00218,20.22117 -5.00748,0.69261 -3.98315,-20.12246 -1.42057,0.22511 4.15444,16.75631 -5.00748,0.69261 -4.34131,-17.5078 -3.68208,-9.82659 1.29168,-8.2249 z" />
    <path
       id="face_bras_g"
       d="m 142.62531,193.63804 -6.57599,-30.64194 5.47999,-22.08184 -3.90515,-40.69618 -1e-5,-3e-5 14.51865,6.09713 4.14308,24.10281 -1.27594,12.23743 6.62657,43.00289 z" />
    <path
       id="face_avbras_g"
       d="m 161.63651,185.65831 4.89705,5.1432 7.21416,50.28314 -13.68751,5.00595 -17.95687,-46.78849 0.52197,-5.66407 z" />
    <path
       id="face_main_d"
       d="m 26.252387,241.08613 -11.89579,1.36619 -2.277075,1.41988 -12.0792052,4.14017 3.08339,4.3514 10.8749212,-1.76272 -0.517364,10.60061 -0.994919,3.68129 -2.962269,14.07759 5.009208,0.69089 4.362081,-17.59092 0.998379,0.15931 -4.339579,21.996 5.024779,0.49869 4.280754,-21.70683 1.126429,0.17834 -4.002179,20.22117 5.007477,0.69261 3.98315,-20.12246 1.420569,0.22511 -4.154441,16.75631 5.007478,0.69261 4.341315,-17.5078 3.682073,-9.82659 -1.291679,-8.2249 z" />
    <path
       id="face_bras_d"
       d="m 57.374792,193.63952 6.575993,-30.64194 -5.479995,-22.08184 3.905152,-40.69618 1.6e-5,-3e-5 -14.518654,6.09713 -4.143084,24.10281 1.27594,12.23743 -6.626567,43.00289 z" />
    <path
       id="face_avbras_d"
       d="m 38.363593,185.65979 -4.897053,5.1432 -7.214153,50.28314 13.687503,5.00595 17.956872,-46.78849 -0.52197,-5.66407 z" />
    <path
       d="m 86.418165,95.168636 -24.042223,5.050924 -3.90517,40.6946 10.320593,41.58453 31.208645,-13.46813 31.20864,13.46813 10.32208,-41.58453 -3.90666,-40.6946 -24.04074,-5.050924 v 1.71737 l -13.58332,8.186544 -13.581845,-8.186544 z"
       id="face_thorax" />
    <path
       d="m 100.00001,169.02907 -31.208645,13.46962 1.149541,23.72475 -5.97821,34.89214 23.859308,13.07376 -1.281892,-24.22328 13.459898,-4.76222 13.45989,4.76222 -1.28189,24.22328 23.86079,-13.07376 -5.97969,-34.89957 1.14954,-23.71732 z"
       id="face_abdomen" />
    <path
       id="face_genital"
       d="m 100.00008,225.20442 -13.459945,4.76158 1.291341,24.4017 12.168604,6.75614 12.16853,-6.75614 1.29135,-24.4017 z" />
    <path
       id="face_cuisse_d"
       d="m 100.00006,261.12384 -36.038279,-20.00897 -6.926234,54.48653 3.807013,70.20862 6.934212,18.64067 6.934213,3.94583 6.93422,-3.94583 6.934213,-18.64067 z" />
    <path
       id="face_pied_d"
       d="m 61.929688,483.91211 -2.792969,8.24414 -8.535157,12.68359 2.925782,8.06446 17.148437,-0.49024 2.113281,-1.53515 0.488282,2.55859 7.476562,0.38672 1.951172,-5.37695 1.462891,-3.45704 -3.746094,-21.07812 z" />
    <path
       id="face_tibia_d"
       d="m 80.421875,483.91211 -0.142578,-9.09375 -1.578125,-9.91797 9.876953,-49.56445 -2.716797,-27.21094 2.716797,-22.31445 -6.933594,18.64062 -6.933593,3.94531 -6.933594,-3.94531 -6.935547,-18.64062 -5.4375,32.92773 8.902344,67.24805 -3.177735,7.47656 0.800782,10.44922 z" />
    <path
       d="m 100.00008,261.12384 36.03828,-20.00897 6.92624,54.48653 -3.80702,70.20862 -6.93421,18.64067 -6.93421,3.94583 -6.93422,-3.94583 -6.93421,-18.64067 z"
       id="face_cuisse_g" />
    <path
       id="face_pied_g"
       d="m 119.57812,483.91211 -3.74609,21.07812 1.46289,3.45704 1.95117,5.37695 7.47657,-0.38672 0.48828,-2.55859 2.11328,1.53515 17.14844,0.49024 2.92578,-8.06446 -8.53516,-12.68359 -2.79297,-8.24414 z" />
    <path
       id="face_tibia_g"
       d="m 138.07031,483.91211 0.80078,-10.44922 -3.17773,-7.47656 8.90234,-67.24805 -5.4375,-32.92773 -6.93554,18.64062 -6.9336,3.94531 -6.93359,-3.94531 -6.93359,-18.64062 2.71679,22.31445 -2.71679,27.21094 9.87695,49.56445 -1.57813,9.91797 -0.14258,9.09375 z" />
  </g>
</svg>
