<?xml version="1.0" encoding="UTF-8" standalone="no"?>
<svg
   xmlns:dc="http://purl.org/dc/elements/1.1/"
   xmlns:cc="http://creativecommons.org/ns#"
   xmlns:rdf="http://www.w3.org/1999/02/22-rdf-syntax-ns#"
   xmlns:svg="http://www.w3.org/2000/svg"
   xmlns="http://www.w3.org/2000/svg"
   width="200"
   height="515"
   viewBox="0 0 200 515"
   id="svg2"
   version="1.1">
  <defs
     id="defs4" />
  <metadata
     id="metadata7">
    <rdf:RDF>
      <cc:Work
         rdf:about="">
        <dc:format>image/svg+xml</dc:format>
        <dc:type
           rdf:resource="http://purl.org/dc/dcmitype/StillImage" />
        <dc:title></dc:title>
      </cc:Work>
    </rdf:RDF>
  </metadata>
  <g
     style="fill:#aaaaaa;stroke:#888888;stroke-width:1px"
     id="face">
    <path
       id="face_tete"
       d="m 100,0.5 -21.650391,7.8886719 -6.765625,21.5527341 2.052735,29.439453 12.314453,14.25 L 100,77.291016 l 14.04883,-3.660157 12.31445,-14.25 2.05274,-29.439453 -6.76563,-21.5527341 z m -14.048831,73.130859 0.4668,23.25586 L 100,105.07227 113.58203,96.886719 114.04883,73.630859 100,77.414064 Z" />
    <path
       id="face_bras_g"
       d="m 137.62415,100.21805 14.51865,6.09713 4.14308,24.10281 -1.27594,12.23743 6.62657,43.00289 4.89705,5.1432 7.21416,50.28314 11.89579,1.36619 2.27707,1.41988 12.07921,4.14017 -3.08339,4.3514 -10.87492,-1.76272 0.51736,10.60061 0.99492,3.68129 2.96227,14.07759 -5.00921,0.69089 -4.36208,-17.59092 -0.99838,0.15931 4.33958,21.996 -5.02478,0.49869 -4.28075,-21.70683 -1.12643,0.17834 4.00218,20.22117 -5.00748,0.69261 -3.98315,-20.12246 -1.42057,0.22511 4.15444,16.75631 -5.00748,0.69261 -4.34131,-17.5078 -3.68208,-9.82659 1.29168,-8.2249 -17.95687,-46.78849 0.52197,-5.66407 -6.57599,-30.64194 5.47999,-22.08184 -3.90515,-40.69618 z" />
    <path
       id="face_bras_d"
       d="m 62.375958,100.21953 -14.518654,6.09713 -4.143084,24.10281 1.27594,12.23743 -6.626567,43.00289 -4.897053,5.1432 -7.214153,50.28314 -11.89579,1.36619 -2.277075,1.41988 -12.0792052,4.14017 3.08339,4.3514 10.8749212,-1.76272 -0.517364,10.60061 -0.994919,3.68129 -2.962269,14.07759 5.009208,0.69089 4.362081,-17.59092 0.998379,0.15931 -4.339579,21.996 5.024779,0.49869 4.280754,-21.70683 1.126429,0.17834 -4.002179,20.22117 5.007477,0.69261 3.98315,-20.12246 1.420569,0.22511 -4.154441,16.75631 5.007478,0.69261 4.341315,-17.5078 3.682073,-9.82659 -1.291679,-8.2249 17.956872,-46.78849 -0.52197,-5.66407 6.575993,-30.64194 -5.479995,-22.08184 3.905152,-40.69618 z" />
    <path
       id="face_thorax"
       d="m 86.418165,95.168636 -24.042223,5.050924 -3.90517,40.6946 10.320593,41.58453 31.208645,-13.46813 31.20864,13.46813 10.32208,-41.58453 -3.90666,-40.6946 -24.04074,-5.050924 0,1.71737 -13.58332,8.186544 -13.581845,-8.186544 0,-1.71737 z" />
    <path
       id="face_abdomen"
       d="m 100.00001,169.02907 -31.208645,13.46962 1.149541,23.72475 -5.97821,34.89214 23.859308,13.07376 -1.281892,-24.22328 13.459898,-4.76222 13.45989,4.76222 -1.28189,24.22328 23.86079,-13.07376 -5.97969,-34.89957 1.14954,-23.71732 -31.20864,-13.46962 z" />
    <path
       d="m 100.00008,225.20442 -13.459945,4.76158 1.291341,24.4017 12.168604,6.75614 12.16853,-6.75614 1.29135,-24.4017 z"
       id="face_genital" />
    <path
       d="m 100.00006,261.12384 -36.038279,-20.00897 -6.926234,54.48653 3.807013,70.20862 6.934212,18.64067 6.934213,3.94583 6.93422,-3.94583 6.934213,-18.64067 z"
       id="face_cuisse_d" />
    <path
       d="M 60.841797 365.81055 L 55.404297 398.73828 L 64.306641 465.98633 L 61.128906 473.46289 L 61.929688 483.91211 L 59.136719 492.15625 L 50.601562 504.83984 L 53.527344 512.9043 L 70.675781 512.41406 L 72.789062 510.87891 L 73.277344 513.4375 L 80.753906 513.82422 L 82.705078 508.44727 L 84.167969 504.99023 L 80.421875 483.91211 L 80.279297 474.81836 L 78.701172 464.90039 L 88.578125 415.33594 L 85.861328 388.125 L 88.578125 365.81055 L 81.644531 384.45117 L 74.710938 388.39648 L 67.777344 384.45117 L 60.841797 365.81055 z "
       id="face_tibia_d" />
    <path
       id="face_cuisse_g"
       d="m 100.00008,261.12384 36.03828,-20.00897 6.92624,54.48653 -3.80702,70.20862 -6.93421,18.64067 -6.93421,3.94583 -6.93422,-3.94583 -6.93421,-18.64067 z" />
    <path
       d="M 111.42188 365.81055 L 114.13867 388.125 L 111.42188 415.33594 L 121.29883 464.90039 L 119.7207 474.81836 L 119.57812 483.91211 L 115.83203 504.99023 L 117.29492 508.44727 L 119.24609 513.82422 L 126.72266 513.4375 L 127.21094 510.87891 L 129.32422 512.41406 L 146.47266 512.9043 L 149.39844 504.83984 L 140.86328 492.15625 L 138.07031 483.91211 L 138.87109 473.46289 L 135.69336 465.98633 L 144.5957 398.73828 L 139.1582 365.81055 L 132.22266 384.45117 L 125.28906 388.39648 L 118.35547 384.45117 L 111.42188 365.81055 z "
       id="face_tibia_g" />
  </g>
</svg>
