<?xml version="1.0" encoding="UTF-8" standalone="no"?>
<svg
   xmlns:dc="http://purl.org/dc/elements/1.1/"
   xmlns:cc="http://creativecommons.org/ns#"
   xmlns:rdf="http://www.w3.org/1999/02/22-rdf-syntax-ns#"
   xmlns:svg="http://www.w3.org/2000/svg"
   xmlns="http://www.w3.org/2000/svg"
   version="1.1"
   id="svg2"
   viewBox="0 0 200 515"
   height="515"
   width="200">
  <defs
     id="defs4" />
  <metadata
     id="metadata7">
    <rdf:RDF>
      <cc:Work
         rdf:about="">
        <dc:format>image/svg+xml</dc:format>
        <dc:type
           rdf:resource="http://purl.org/dc/dcmitype/StillImage" />
        <dc:title></dc:title>
      </cc:Work>
    </rdf:RDF>
  </metadata>
  <g
     id="face"
     style="fill:#aaaaaa;stroke:#888888;stroke-width:1px">
    <path
       d="m 99.99998,36.848647 -21.650391,7.888672 -6.765625,21.552734 2.052735,29.439453 12.314453,14.250004 14.048828,3.66015 14.04883,-3.66015 12.31445,-14.250004 2.05274,-29.439453 -6.76563,-21.552734 z m -14.048831,73.130863 0.4668,23.25586 13.582031,8.18555 13.58203,-8.18555 0.4668,-23.25586 -14.04883,3.7832 z"
       id="face_tete" />
    <path
       d="m 66.233565,136.56818 -8.15357,4.55408 -6.339008,36.34024 -4.504872,19.27848 -5.668578,17.29473 -7.214153,37.36009 -11.89579,1.36619 -2.277075,1.41988 -12.0792054,4.14017 3.0833904,4.3514 10.874921,-1.76272 -0.517364,10.60061 -0.994919,3.68129 -2.962269,14.07759 5.009208,0.69089 4.362081,-17.59092 0.998379,0.15931 -4.339579,21.996 5.024779,0.49869 4.280754,-21.70683 1.126429,0.17834 -4.002179,20.22117 5.007477,0.69261 3.98315,-20.12246 1.420569,0.22511 -4.154441,16.75631 5.007478,0.69261 4.341315,-17.5078 3.682073,-9.82659 -1.291679,-8.2249 13.906363,-40.03765 1.985488,-10.10034 2.718366,-13.08973 -1.236605,-15.90964 0.81905,-40.69618 z"
       id="face_bras_d" />
    <path
       id="face_thorax"
       d="m 86.417969,131.51791 -20.183594,5.05078 -0.820313,40.69336 3.376954,29.24024 L 100,193.03549 l 31.20898,13.46875 3.37696,-29.24023 -0.82032,-40.69336 -20.18359,-5.05274 0,1.71875 -13.58203,8.18555 0,-0.002 -13.582031,-8.18555 0,-1.7168 z" />
    <path
       id="face_abdomen"
       d="m 100,193.03354 -31.208984,13.46875 1.15039,23.72461 -2.705078,34.89257 20.585938,13.07422 -1.28125,-24.22265 L 100,249.20736 l 0,0.002 13.45898,4.76172 -1.28125,24.22461 20.58594,-13.07422 -2.70508,-34.89258 1.15039,-23.72461 L 100,193.03549 l 0,-0.002 z" />
    <path
       id="face_genital"
       d="m 100.00006,249.20866 -13.459945,4.76158 1.291341,24.4017 12.168604,6.75614 12.16853,-6.75614 1.29135,-24.4017 z" />
    <path
       id="face_cuisse_d"
       d="m 100.00006,285.12808 -32.764974,-20.00897 -2.289051,46.43965 0.260932,22.65279 6.934212,18.64067 6.934213,3.94583 4.812525,-3.94583 6.934213,-18.64067 z" />
    <path
       id="face_tibia_d"
       d="m 65.206204,334.21208 -1.965636,43.72908 6.061524,42.72237 -2.526271,5.9438 0.636615,8.30703 -2.220385,6.55402 -6.785373,10.08334 2.32597,6.41117 13.632852,-0.38973 1.680039,-1.22043 0.38818,2.03405 5.943799,0.30744 1.551164,-4.27463 1.162985,-2.74831 -2.978111,-16.75692 -0.113348,-7.22944 -1.254595,-7.8847 7.953529,-34.13394 -0.595102,-29.13975 2.716797,-22.31445 -6.933594,18.64062 -4.811898,3.94531 -6.933594,-3.94531 z" />
    <path
       id="face_bras_g"
       d="m 133.76641,136.56967 8.15357,4.55408 6.33901,36.34024 4.50487,19.27848 5.66858,17.29473 7.21416,37.36009 11.89579,1.36619 2.27707,1.41988 12.07921,4.14017 -3.08339,4.3514 -10.87493,-1.76272 0.51737,10.60061 0.99492,3.68129 2.96227,14.07759 -5.00921,0.69089 -4.36208,-17.59092 -0.99838,0.15931 4.33958,21.996 -5.02478,0.49869 -4.28076,-21.70683 -1.12642,0.17834 4.00217,20.22117 -5.00747,0.69261 -3.98315,-20.12246 -1.42057,0.22511 4.15444,16.75631 -5.00748,0.69261 -4.34131,-17.5078 -3.68208,-9.82659 1.29168,-8.2249 -13.90636,-40.03765 -1.98549,-10.10034 -2.71836,-13.08973 1.2366,-15.90964 -0.81905,-40.69618 z" />
    <path
       d="m 99.99992,285.12957 32.76497,-20.00897 2.28905,46.43965 -0.26093,22.65279 -6.93421,18.64067 -6.93421,3.94583 -4.81253,-3.94583 -6.93421,-18.64067 z"
       id="face_cuisse_g" />
    <path
       d="m 134.79378,334.21357 1.96563,43.72908 -6.06152,42.72237 2.52627,5.9438 -0.63662,8.30703 2.22039,6.55402 6.78537,10.08334 -2.32597,6.41117 -13.63285,-0.38973 -1.68004,-1.22043 -0.38818,2.03405 -5.9438,0.30744 -1.55116,-4.27463 -1.16299,-2.74831 2.97811,-16.75692 0.11335,-7.22944 1.2546,-7.8847 -7.95353,-34.13394 0.5951,-29.13975 -2.7168,-22.31445 6.9336,18.64062 4.81189,3.94531 6.9336,-3.94531 z"
       id="face_tibia_g" />
  </g>
</svg>
